<?xml version="1.0" encoding="utf-8"?>
<!-- Generator: Adobe Illustrator 24.0.3, SVG Export Plug-In . SVG Version: 6.00 Build 0)  -->
<svg version="1.1" id="Layer_1" xmlns="http://www.w3.org/2000/svg" xmlns:xlink="http://www.w3.org/1999/xlink" x="0px" y="0px"
	 viewBox="0 0 463.7 141.4" style="enable-background:new 0 0 463.7 141.4;" xml:space="preserve">
<style type="text/css">
	.st0{fill:#FFFFFF;}
	.st1{fill:#583749;}
	.st2{fill:#3170B7;}
	.st3{fill:#EE363D;}
	.st4{fill:#A9C3CA;}
	.st5{fill:#295F9C;}
	.st6{fill:#AE282E;}
</style>
<path class="st0" d="M182.9,105.9c-10.5,0-18.7-3.1-24.5-9.3c-5.8-6.2-8.7-14.6-8.7-25.2v-0.8c0-10.1,3.1-18.4,9.4-24.9
	c6.2-6.5,14.1-9.7,23.6-9.7c8.1,0,14.8,2,20.1,6.1c5.3,4,8.3,9.9,9.1,17.7h-12.8c-1.5-9.1-6.9-13.7-16.2-13.7
	c-6,0-10.8,2.2-14.4,6.6c-3.6,4.4-5.4,10.4-5.4,17.9v0.8c0,7.7,1.7,13.6,5.2,17.9c3.5,4.3,8.4,6.4,14.6,6.4c4.8,0,8.7-1.2,11.8-3.7
	c3.1-2.4,4.9-6,5.6-10.7h12.3c-1,8-4.1,14.1-9.4,18.3C198,103.8,191.2,105.9,182.9,105.9z"/>
<path class="st0" d="M263.1,98.9c-4.8,4.7-10.9,7-18.3,7c-7.4,0-13.5-2.3-18.3-7c-4.8-4.7-7.2-10.8-7.2-18.2v-0.8
	c0-7.6,2.4-13.8,7.2-18.5c4.8-4.7,10.9-7.1,18.3-7.1c7.3,0,13.4,2.3,18.2,7c4.8,4.7,7.2,10.8,7.2,18.3v0.8
	C270.3,88,267.9,94.2,263.1,98.9z M244.9,97c4.2,0,7.6-1.5,10-4.4s3.7-7,3.7-12.1v-0.7c0-5.1-1.2-9.2-3.7-12.1s-5.8-4.4-10-4.4
	c-4.3,0-7.7,1.5-10.1,4.4c-2.4,2.9-3.7,6.9-3.7,12.1v0.8c0,5.1,1.2,9.2,3.7,12.1C237.2,95.5,240.6,97,244.9,97z"/>
<path class="st0" d="M297.7,105.9c-6.4,0-11.4-1.4-15-4.3c-3.6-2.8-5.5-6.9-5.8-12.2h10.8c0.3,2.7,1.2,4.7,2.8,6
	c1.5,1.3,3.9,2,7.1,2c6,0,8.9-2.1,8.9-6.4c0-2-0.8-3.4-2.4-4.4c-1.6-1-4.4-1.8-8.2-2.4c-6.7-1.1-11.3-2.7-14-4.9
	c-2.7-2.2-4-5.6-4-10.2c0-4.7,1.8-8.3,5.5-11c3.7-2.6,8-3.9,13.1-3.9c11.9,0,18.4,5,19.5,15h-10.6c-0.5-2.3-1.4-4-2.8-5
	c-1.4-1.1-3.4-1.6-6-1.6c-2.5,0-4.4,0.5-5.8,1.6c-1.4,1.1-2.1,2.5-2.1,4.3s0.7,3.1,2.2,4c1.5,0.9,4.1,1.7,8.1,2.4
	c6.5,1,11.2,2.6,14.2,4.7c3,2.1,4.5,5.6,4.5,10.5c0,5.1-1.7,9-5.2,11.7C308.9,104.5,304,105.9,297.7,105.9z"/>
<path class="st0" d="M327.6,104.9V55.3h11.5v7.6c1.3-2.5,3.2-4.5,5.9-6.2c2.7-1.6,5.7-2.5,9.2-2.5c7,0,11.6,3,14.1,8.9
	c1.8-2.9,4.3-5.1,7.3-6.7c3-1.5,6.2-2.3,9.5-2.3c4.9,0,8.8,1.6,11.9,4.8c3.1,3.2,4.6,8,4.6,14.5v31.4h-11.5V74.3
	c0-7-2.9-10.4-8.8-10.4c-3,0-5.6,1-7.7,3c-2.1,2-3.2,4.8-3.2,8.4v29.7h-11.5V74.3c0-7-2.9-10.4-8.8-10.4c-3,0-5.6,1-7.7,3
	c-2.1,2-3.2,4.8-3.2,8.4v29.7H327.6z"/>
<path class="st0" d="M455.2,98.9c-4.8,4.7-10.9,7-18.3,7c-7.4,0-13.5-2.3-18.3-7c-4.8-4.7-7.2-10.8-7.2-18.2v-0.8
	c0-7.6,2.4-13.8,7.2-18.5c4.8-4.7,10.9-7.1,18.3-7.1c7.3,0,13.4,2.3,18.2,7c4.8,4.7,7.2,10.8,7.2,18.3v0.8
	C462.4,88,460,94.2,455.2,98.9z M437,97c4.2,0,7.6-1.5,10-4.4c2.4-2.9,3.7-7,3.7-12.1v-0.7c0-5.1-1.2-9.2-3.7-12.1
	c-2.4-2.9-5.8-4.4-10-4.4c-4.3,0-7.7,1.5-10.1,4.4c-2.4,2.9-3.7,6.9-3.7,12.1v0.8c0,5.1,1.2,9.2,3.7,12.1S432.7,97,437,97z"/>
<path class="st1" d="M44.4,96.3C44.4,96.3,44.4,96.3,44.4,96.3c-7.5-10.3-13.3-22.9-16.1-35.8c-7.3,6.4-14.7,16.2-18.4,27.2
	C17.1,93.4,30.9,95.6,44.4,96.3C44.4,96.3,44.4,96.3,44.4,96.3z"/>
<path class="st2" d="M44.4,96.3C44.4,96.3,44.4,96.3,44.4,96.3c-13.5-0.7-27.3-2.9-34.6-8.6c-2.9,8.4-3.7,17.5-0.9,26.5
	c6.5,20.7,28.6,28.7,44.7,25.9c15.3-2.6,21.9-10.1,25.7-18.3C66.5,119.3,54,109.6,44.4,96.3z"/>
<path class="st3" d="M28.3,60.4c5.4-4.7,8.1-7.2,11.1-9.8c1.4-1.2,3-2.5,4.7-3.8c3.6-2.8,8.6-6.5,17.2-12.8
	C71.1,27.4,86,24,99.7,27.2c0,0,0,0,0,0C98-1.8,64.2-4.6,47.4,7.5C30.6,19.7,35.8,36.4,28.3,46.8c-3.7,5.2-14.3,6.1-21.1,12.5
	c-6.9,6.6-9.8,18.7,2.6,28.4c0,0,0,0,0,0C13.6,76.6,20.9,66.8,28.3,60.4z"/>
<path class="st4" d="M131,61.5c-4.3-20.7-17.1-31-31.3-34.3c0.7,10.8-1.7,22.9-4.9,34c8.7,9.6,13.2,18.4,9.1,25.6
	c-4.3,7.5-11.1,6.4-15.4,11.9c-4.4,5.7-5.5,14.8-9.4,23.1c2.1,0.4,4.2,0.6,6.3,0.6C110.6,122.4,139.5,102.3,131,61.5z"/>
<path class="st5" d="M104,86.8c4.1-7.2-0.4-16-9.1-25.6l0,0c-5.4,18.6-13.3,34-13.3,34s-18.4,2.1-37.2,1.1c0,0,0,0,0,0c0,0,0,0,0,0
	c9.6,13.2,22.1,23,34.9,25.4c3.9-8.3,5-17.4,9.4-23.1C92.9,93.1,99.8,94.3,104,86.8z"/>
<path class="st6" d="M61.3,34.1c19.5,12.5,23.2,15.9,32.6,26c0.3,0.4,0.7,0.7,1,1.1c3.2-11,5.5-23.2,4.9-34
	C86,24,71.1,27.4,61.3,34.1z"/>
<path class="st0" d="M61.3,34.1c-8.7,6.3-13.7,10-17.2,12.8c-1.7,1.3-3.2,2.6-4.7,3.8c-3,2.5-5.7,5-11.1,9.8
	c2.8,12.9,8.6,25.5,16.2,35.9c18.8,0.9,37.2-1.1,37.2-1.1s7.9-15.4,13.3-34c-0.3-0.4-0.7-0.7-1-1.1C84.5,50,80.8,46.6,61.3,34.1z"/>
</svg>
